<svg width="220" height="220" viewBox="0 0 220 220" fill="none" xmlns="http://www.w3.org/2000/svg">
<path d="M168.997 118.1C168.997 123.283 166.938 128.253 163.274 131.919C159.609 135.583 154.638 137.642 149.456 137.642" stroke="white" stroke-miterlimit="10"/>
<path d="M41.9762 108.329C41.9762 110.921 43.0056 113.406 44.838 115.238C46.6704 117.071 49.1556 118.1 51.747 118.1C54.3384 118.1 56.8236 117.071 58.6561 115.238C60.4885 113.406 61.5178 110.921 61.5178 108.329" stroke="white" stroke-miterlimit="10"/>
<path d="M51.7467 118.1C51.7467 123.283 53.8056 128.253 57.4704 131.919C61.1351 135.583 66.1056 137.642 71.2884 137.642" stroke="white" stroke-miterlimit="10"/>
<path d="M94.6607 132.581V148.214L110.294 140.397L94.6607 132.581Z" stroke="white" stroke-miterlimit="10"/>
<path d="M125.927 132.581V148.214L110.294 140.397L125.927 132.581Z" stroke="white" stroke-miterlimit="10"/>
<path d="M110.372 65.2985C100.007 65.2985 90.0657 69.4163 82.7362 76.7458C75.4067 84.0753 71.2889 94.0163 71.2889 104.382V121.969H149.456V104.382C149.456 94.0163 145.337 84.0753 138.008 76.7458C130.679 69.4163 120.738 65.2985 110.372 65.2985Z" stroke="white" stroke-miterlimit="10"/>
<path d="M71.2105 125.917H149.377V153.275C149.377 156.385 148.141 159.367 145.943 161.566C143.744 163.765 140.762 165 137.652 165H82.9355C79.8258 165 76.8436 163.765 74.6447 161.566C72.4458 159.367 71.2105 156.385 71.2105 153.275V125.917Z" stroke="white" stroke-miterlimit="10"/>
<path d="M100.601 66.8319V102.467C100.601 105.058 101.631 107.543 103.463 109.376C105.295 111.208 107.781 112.237 110.372 112.237C112.963 112.237 115.448 111.208 117.281 109.376C119.114 107.543 120.143 105.058 120.143 102.467V66.8319" stroke="white" stroke-miterlimit="10"/>
<path d="M110.294 157.007C111.913 157.007 113.225 155.695 113.225 154.076C113.225 152.457 111.913 151.144 110.294 151.144C108.675 151.144 107.363 152.457 107.363 154.076C107.363 155.695 108.675 157.007 110.294 157.007Z" stroke="white"/>
<path d="M110.294 60.8624C111.913 60.8624 113.225 59.5501 113.225 57.9313C113.225 56.3124 111.913 55 110.294 55C108.675 55 107.363 56.3124 107.363 57.9313C107.363 59.5501 108.675 60.8624 110.294 60.8624Z" stroke="white"/>
<path d="M110.294 108.29C113.531 108.29 116.157 105.666 116.157 102.428C116.157 99.19 113.531 96.5653 110.294 96.5653C107.056 96.5653 104.431 99.19 104.431 102.428C104.431 105.666 107.056 108.29 110.294 108.29Z" stroke="white" stroke-miterlimit="10"/>
<path d="M112.325 102.428C111.807 102.428 111.31 102.222 110.944 101.855C110.578 101.489 110.372 100.992 110.372 100.473C110.382 100.143 110.476 99.82 110.646 99.5355H110.392C109.812 99.5355 109.245 99.7074 108.763 100.029C108.281 100.352 107.905 100.809 107.683 101.345C107.461 101.881 107.403 102.47 107.516 103.039C107.629 103.607 107.909 104.13 108.319 104.539C108.729 104.949 109.251 105.229 109.819 105.342C110.388 105.455 110.978 105.397 111.513 105.175C112.048 104.953 112.507 104.577 112.828 104.095C113.15 103.613 113.322 103.046 113.322 102.467C113.332 102.369 113.332 102.271 113.322 102.174C113.023 102.355 112.676 102.443 112.325 102.428Z" fill="white"/>
<path d="M54.6004 77.0626H48.7378V104.421L51.6691 108.329L54.6004 104.421V77.0626Z" stroke="white" stroke-miterlimit="10"/>
<path d="M54.6004 71.2H48.7378V77.0625H54.6004V71.2Z" stroke="white" stroke-miterlimit="10"/>
<path d="M48.5615 77.0626H44.6532V90.7418" stroke="white" stroke-miterlimit="10"/>
<path d="M183.575 90.1359H167.941" stroke="white" stroke-miterlimit="10"/>
<path d="M183.575 95.9983H167.941" stroke="white" stroke-miterlimit="10"/>
<path d="M186.584 106.375V84.8793C186.584 83.5836 186.069 82.3409 185.153 81.4247C184.237 80.5086 182.995 79.9939 181.699 79.9939H160.203" stroke="white" stroke-miterlimit="10"/>
<path d="M155.318 88.7876V84.8793C155.318 83.5836 155.833 82.3409 156.749 81.4247C157.664 80.5086 158.907 79.9939 160.203 79.9939C161.499 79.9939 162.742 80.5086 163.658 81.4247C164.573 82.3409 165.088 83.5836 165.088 84.8793V108.329C165.088 109.625 165.603 110.868 166.519 111.784C167.435 112.7 168.678 113.214 169.974 113.214M169.974 113.214C171.27 113.214 172.512 112.7 173.428 111.784C174.345 110.868 174.859 109.625 174.859 108.329V106.375H193.424V108.329C193.424 109.625 192.909 110.868 191.993 111.784C191.077 112.7 189.834 113.214 188.538 113.214H169.974Z" stroke="white" stroke-miterlimit="10"/>
<path d="M110.294 65.2985V60.8626" stroke="white"/>
</svg>
