<svg width="221" height="220" viewBox="0 0 221 220" fill="none" xmlns="http://www.w3.org/2000/svg">
<path d="M176.773 79.92L170.69 86.0028V79.92H148.913V55.5882H187.438V79.92H176.773Z" stroke="white" stroke-miterlimit="10"/>
<path d="M176.286 69.6192C177.406 69.6192 178.314 68.7114 178.314 67.5915C178.314 66.4717 177.406 65.5638 176.286 65.5638C175.167 65.5638 174.258 66.4717 174.258 67.5915C174.258 68.7114 175.167 69.6192 176.286 69.6192Z" fill="white"/>
<path d="M168.175 69.6192C169.295 69.6192 170.203 68.7114 170.203 67.5915C170.203 66.4717 169.295 65.5638 168.175 65.5638C167.055 65.5638 166.148 66.4717 166.148 67.5915C166.148 68.7114 167.055 69.6192 168.175 69.6192Z" fill="white"/>
<path d="M160.065 69.6192C161.184 69.6192 162.092 68.7114 162.092 67.5915C162.092 66.4717 161.184 65.5638 160.065 65.5638C158.945 65.5638 158.037 66.4717 158.037 67.5915C158.037 68.7114 158.945 69.6192 160.065 69.6192Z" fill="white"/>
<path d="M171.216 150.807C171.216 145.429 169.08 140.271 165.278 136.469C161.476 132.667 156.318 130.53 150.94 130.53" stroke="white" stroke-miterlimit="10"/>
<path d="M49.5577 150.807C49.5577 145.429 51.694 140.271 55.4966 136.469C59.2992 132.667 64.4565 130.53 69.8342 130.53" stroke="white" stroke-miterlimit="10"/>
<path d="M64.4811 84.5832C60.7168 84.5832 57.1066 86.0785 54.4448 88.7404C51.783 91.4022 50.2876 95.0124 50.2876 98.7767C50.2876 102.541 51.783 106.151 54.4448 108.813C57.1066 111.475 60.7168 112.97 64.4811 112.97V84.5832Z" stroke="white" stroke-miterlimit="10"/>
<path d="M110.387 61.5493C99.6317 61.5493 89.3169 65.8218 81.7119 73.427C74.1067 81.032 69.8342 91.347 69.8342 102.102V120.351H150.94V102.102C150.94 91.347 146.668 81.032 139.062 73.427C131.457 65.8218 121.142 61.5493 110.387 61.5493Z" stroke="white" stroke-miterlimit="10"/>
<path d="M69.8342 124.447H150.94V152.834C150.94 156.06 149.659 159.155 147.377 161.437C145.095 163.718 142 165 138.774 165H82.0001C78.7734 165 75.679 163.718 73.3974 161.437C71.1159 159.155 69.8342 156.06 69.8342 152.834V124.447Z" stroke="white" stroke-miterlimit="10"/>
<path d="M100.249 62.7V100.115C100.249 102.804 101.317 105.383 103.219 107.284C105.12 109.185 107.699 110.253 110.387 110.253C113.076 110.253 115.654 109.185 117.556 107.284C119.457 105.383 120.525 102.804 120.525 100.115V62.7" stroke="white" stroke-miterlimit="10"/>
<path d="M110.387 106.137C113.747 106.137 116.471 103.414 116.471 100.054C116.471 96.6947 113.747 93.9713 110.387 93.9713C107.028 93.9713 104.304 96.6947 104.304 100.054C104.304 103.414 107.028 106.137 110.387 106.137Z" stroke="white" stroke-miterlimit="10"/>
<path d="M112.395 100.075C111.857 100.075 111.341 99.8611 110.961 99.4808C110.581 99.1006 110.367 98.5849 110.367 98.0471C110.374 97.6969 110.472 97.3546 110.651 97.0536H110.387C109.786 97.0536 109.198 97.2319 108.697 97.5662C108.197 97.9003 107.808 98.3753 107.577 98.931C107.347 99.4869 107.287 100.098 107.404 100.688C107.522 101.278 107.811 101.82 108.237 102.246C108.662 102.671 109.204 102.961 109.794 103.078C110.384 103.195 110.996 103.135 111.551 102.905C112.107 102.675 112.582 102.285 112.916 101.785C113.251 101.285 113.429 100.697 113.429 100.095C113.439 99.9939 113.439 99.892 113.429 99.7908C113.119 99.9825 112.759 100.081 112.395 100.075Z" fill="white"/>
<path d="M64.4813 86.611C68.0328 77.3138 74.3232 69.3137 82.5202 63.6692C90.7172 58.0248 100.435 55.0016 110.387 55" stroke="white" stroke-miterlimit="10"/>
<path d="M87.7992 110.193C89.479 110.193 90.8407 108.831 90.8407 107.151C90.8407 105.471 89.479 104.109 87.7992 104.109C86.1195 104.109 84.7577 105.471 84.7577 107.151C84.7577 108.831 86.1195 110.193 87.7992 110.193Z" stroke="white"/>
<path d="M64.4813 107.151H84.7578" stroke="white" stroke-miterlimit="10"/>
<path d="M117.485 151.293L110.387 158.39L103.291 151.293L110.387 137.1L117.485 151.293Z" stroke="white" stroke-miterlimit="10"/>
<path d="M110.387 135.599C112.067 135.599 113.429 134.237 113.429 132.558C113.429 130.878 112.067 129.516 110.387 129.516C108.708 129.516 107.346 130.878 107.346 132.558C107.346 134.237 108.708 135.599 110.387 135.599Z" stroke="white"/>
</svg>
