<svg width="219" height="220" viewBox="0 0 219 220" fill="none" xmlns="http://www.w3.org/2000/svg">
<path d="M107.051 57.5819V107.942H179.391" stroke="white" stroke-miterlimit="10"/>
<path d="M112.603 102.336L125.998 81.9129L135.576 91.5431L149.202 69.4683L160.306 80.6336L176.824 58.4426" stroke="white" stroke-miterlimit="10"/>
<path d="M151.584 124.783H107.051V133.18H151.584V124.783Z" stroke="white" stroke-miterlimit="10"/>
<path d="M179.414 133.18H107.051V141.578H179.414V133.18Z" stroke="white" stroke-miterlimit="10"/>
<path d="M134.881 147.16H107.051V155.558H134.881V147.16Z" stroke="white" stroke-miterlimit="10"/>
<path d="M171.063 155.558H107.051V163.955H171.063V155.558Z" stroke="white" stroke-miterlimit="10"/>
<path d="M61.4312 135.972H44.7285V163.955H61.4312V135.972Z" stroke="white" stroke-miterlimit="10"/>
<path d="M94.8134 141.578H78.1107V163.955H94.8134V141.578Z" stroke="white" stroke-miterlimit="10"/>
<path d="M78.1108 124.783H61.4081V163.955H78.1108V124.783Z" stroke="white" stroke-miterlimit="10"/>
<path d="M95.9936 80.5871C95.4653 73.9782 92.6146 67.7742 87.9519 63.0859C83.2892 58.3976 77.1191 55.5312 70.5463 55V74.7952C71.9206 75.1863 73.173 75.9235 74.1849 76.9371C75.197 77.9505 75.9352 79.2068 76.3297 80.5871H95.9936Z" stroke="white" stroke-miterlimit="10"/>
<path d="M68.3251 110.826C74.6589 110.812 80.7973 108.621 85.7218 104.616L71.6795 90.4963C70.6265 90.9808 69.4831 91.2345 68.3251 91.2407C66.3734 91.1768 64.5065 90.4236 63.0524 89.1132C61.5982 87.8028 60.6497 86.0191 60.3735 84.0753C60.0974 82.1316 60.5112 80.1523 61.5424 78.4849C62.5735 76.8175 64.1559 75.5687 66.0118 74.958V55C62.3661 55.1527 58.7862 56.026 55.4762 57.5698C52.1662 59.1138 49.1911 61.2981 46.7208 63.998C41.7315 69.4508 39.1009 76.6732 39.4077 84.0763C39.7145 91.4793 42.9335 98.4566 48.3565 103.473C53.7796 108.49 60.9626 111.135 68.3251 110.826Z" stroke="white" stroke-miterlimit="10"/>
<path d="M89.0763 101.522C93.0967 97.0026 95.5344 91.2835 96.0165 85.2392H76.3295C76.1022 86.0715 75.7345 86.8583 75.2422 87.5654L89.0763 101.522Z" stroke="white" stroke-miterlimit="10"/>
</svg>
